<?xml version="1.0" encoding="iso-8859-1"?>
<svg version="1.1" xmlns="http://www.w3.org/2000/svg" xmlns:xlink="http://www.w3.org/1999/xlink" x="0px" y="0px" viewBox="0 0 512 512" enable-background="new 0 0 512 512" xml:space="preserve">
<path fill="#0091FF" d="M96,0h320c53.019,0,96,42.981,96,96v320c0,53.019-42.981,96-96,96H96c-53.019,0-96-42.981-96-96V96 C0,42.981,42.981,0,96,0z"/>
<path fill="#FFFFFF" d="M256,165.122c47.981,0,86.878,38.896,86.878,86.878c0,32.145-17.52,60.235-43.439,75.294v26.063 c0,7.997-6.483,14.48-14.48,14.48h-57.918c-7.997,0-14.48-6.483-14.48-14.48v-26.063c-25.918-15.059-43.439-43.149-43.439-75.294 C169.122,204.019,208.019,165.122,256,165.122 M284.959,382.316v14.48c0,7.997-6.483,14.48-14.48,14.48H241.52 c-7.997,0-14.48-6.483-14.48-14.48v-14.48H284.959 M371.837,237.52h43.439v28.959h-43.439V237.52 M96.724,237.52h43.439v28.959 H96.724V237.52 M270.48,92.724v43.439H241.52V92.724H270.48 M153.484,128.923l30.842,30.986l-20.561,20.416l-30.842-30.697 L153.484,128.923 M327.674,159.765l30.697-30.842l20.706,20.706l-30.842,30.697L327.674,159.765z"/>
</svg>
